# Blender 4.2.2 LTS
# www.blender.org
mtllib box2.mtl
o Cube
v 0.943819 1.000000 1.000000
v 1.000000 1.000000 0.943819
v 0.952607 1.000000 0.999308
v 0.961180 1.000000 0.997250
v 0.969324 1.000000 0.993877
v 0.976841 1.000000 0.989270
v 0.983545 1.000000 0.983545
v 0.989270 1.000000 0.976841
v 0.993877 1.000000 0.969324
v 0.997250 1.000000 0.961180
v 0.999308 1.000000 0.952607
v 1.000000 1.000000 -0.943818
v 0.943819 1.000000 -1.000000
v 0.999308 1.000000 -0.952607
v 0.997250 1.000000 -0.961180
v 0.993877 1.000000 -0.969324
v 0.989270 1.000000 -0.976841
v 0.983545 1.000000 -0.983545
v 0.976841 1.000000 -0.989270
v 0.969324 1.000000 -0.993877
v 0.961180 1.000000 -0.997250
v 0.952607 1.000000 -0.999308
v 1.000000 -1.000000 0.943818
v 0.943819 -1.000000 1.000000
v 0.999308 -1.000000 0.952607
v 0.997250 -1.000000 0.961180
v 0.993877 -1.000000 0.969324
v 0.989270 -1.000000 0.976841
v 0.983545 -1.000000 0.983545
v 0.976841 -1.000000 0.989270
v 0.969324 -1.000000 0.993877
v 0.961180 -1.000000 0.997250
v 0.952607 -1.000000 0.999308
v 0.943819 -1.000000 -1.000000
v 1.000000 -1.000000 -0.943819
v 0.952607 -1.000000 -0.999308
v 0.961180 -1.000000 -0.997250
v 0.969324 -1.000000 -0.993877
v 0.976841 -1.000000 -0.989270
v 0.983545 -1.000000 -0.983545
v 0.989270 -1.000000 -0.976841
v 0.993877 -1.000000 -0.969324
v 0.997250 -1.000000 -0.961180
v 0.999308 -1.000000 -0.952607
v -1.000000 1.000000 0.943819
v -0.943819 1.000000 1.000000
v -0.999308 1.000000 0.952607
v -0.997250 1.000000 0.961180
v -0.993877 1.000000 0.969324
v -0.989270 1.000000 0.976841
v -0.983545 1.000000 0.983545
v -0.976841 1.000000 0.989270
v -0.969324 1.000000 0.993877
v -0.961180 1.000000 0.997250
v -0.952607 1.000000 0.999308
v -0.943819 1.000000 -1.000000
v -1.000000 1.000000 -0.943818
v -0.952607 1.000000 -0.999308
v -0.961180 1.000000 -0.997250
v -0.969324 1.000000 -0.993877
v -0.976841 1.000000 -0.989270
v -0.983545 1.000000 -0.983545
v -0.989270 1.000000 -0.976841
v -0.993877 1.000000 -0.969324
v -0.997250 1.000000 -0.961180
v -0.999308 1.000000 -0.952607
v -0.943819 -1.000000 1.000000
v -1.000000 -1.000000 0.943818
v -0.952607 -1.000000 0.999308
v -0.961180 -1.000000 0.997250
v -0.969324 -1.000000 0.993877
v -0.976841 -1.000000 0.989270
v -0.983545 -1.000000 0.983545
v -0.989270 -1.000000 0.976841
v -0.993877 -1.000000 0.969324
v -0.997250 -1.000000 0.961180
v -0.999308 -1.000000 0.952607
v -1.000000 -1.000000 -0.943819
v -0.943819 -1.000000 -1.000000
v -0.999308 -1.000000 -0.952607
v -0.997250 -1.000000 -0.961180
v -0.993877 -1.000000 -0.969324
v -0.989270 -1.000000 -0.976841
v -0.983545 -1.000000 -0.983545
v -0.976841 -1.000000 -0.989270
v -0.969324 -1.000000 -0.993877
v -0.961180 -1.000000 -0.997250
v -0.952607 -1.000000 -0.999308
vn -0.0000 -0.0000 -1.0000
vn -1.0000 -0.0000 -0.0000
vn -0.0000 -1.0000 -0.0000
vn -0.0000 -0.0000 1.0000
vn 1.0000 -0.0000 -0.0000
vn -0.0785 -0.0000 -0.9969
vn -0.2334 -0.0000 -0.9724
vn -0.3827 -0.0000 -0.9239
vn -0.5225 -0.0000 -0.8526
vn -0.6494 -0.0000 -0.7604
vn -0.7604 -0.0000 -0.6494
vn -0.8526 -0.0000 -0.5225
vn -0.9239 -0.0000 -0.3827
vn -0.9724 -0.0000 -0.2334
vn -0.9969 -0.0000 -0.0785
vn 0.0785 -0.0000 0.9969
vn 0.2334 -0.0000 0.9724
vn 0.3827 -0.0000 0.9239
vn 0.5225 -0.0000 0.8526
vn 0.6494 -0.0000 0.7604
vn 0.7604 -0.0000 0.6494
vn 0.8526 -0.0000 0.5225
vn 0.9239 -0.0000 0.3827
vn 0.9724 -0.0000 0.2334
vn 0.9969 -0.0000 0.0785
vn -0.0785 -0.0000 0.9969
vn -0.2334 -0.0000 0.9724
vn -0.3827 -0.0000 0.9239
vn -0.5225 -0.0000 0.8526
vn -0.6494 -0.0000 0.7604
vn -0.7604 -0.0000 0.6494
vn -0.8526 -0.0000 0.5225
vn -0.9239 -0.0000 0.3827
vn -0.9724 -0.0000 0.2334
vn -0.9969 -0.0000 0.0785
vn 0.0785 -0.0000 -0.9969
vn 0.2334 -0.0000 -0.9724
vn 0.3827 -0.0000 -0.9239
vn 0.5225 -0.0000 -0.8526
vn 0.6494 -0.0000 -0.7604
vn 0.7604 -0.0000 -0.6494
vn 0.8526 -0.0000 -0.5225
vn 0.9239 -0.0000 -0.3827
vn 0.9724 -0.0000 -0.2334
vn 0.9969 -0.0000 -0.0785
vn -0.0000 1.0000 -0.0000
vt 0.132023 0.500000
vt 0.367977 0.500000
vt 0.367977 0.750000
vt 0.132023 0.750000
vt 0.382023 0.000000
vt 0.617977 0.000000
vt 0.617977 0.250000
vt 0.382023 0.250000
vt 0.375000 0.757023
vt 0.375086 0.755924
vt 0.375344 0.754853
vt 0.375765 0.753834
vt 0.376341 0.752895
vt 0.377057 0.752057
vt 0.377895 0.751341
vt 0.378834 0.750766
vt 0.379853 0.750344
vt 0.380924 0.750086
vt 0.382023 0.750000
vt 0.617977 0.750000
vt 0.619076 0.750086
vt 0.620147 0.750344
vt 0.621166 0.750765
vt 0.622105 0.751341
vt 0.622943 0.752057
vt 0.623659 0.752895
vt 0.624235 0.753834
vt 0.624656 0.754853
vt 0.624914 0.755924
vt 0.625000 0.757023
vt 0.625000 0.992977
vt 0.624914 0.994076
vt 0.624656 0.995147
vt 0.624235 0.996166
vt 0.623659 0.997105
vt 0.622943 0.997943
vt 0.622105 0.998659
vt 0.621166 0.999235
vt 0.620147 0.999656
vt 0.619076 0.999914
vt 0.617977 1.000000
vt 0.382023 1.000000
vt 0.380924 0.999914
vt 0.379853 0.999656
vt 0.378834 0.999235
vt 0.377895 0.998659
vt 0.377057 0.997943
vt 0.376341 0.997105
vt 0.375765 0.996166
vt 0.375344 0.995147
vt 0.375086 0.994076
vt 0.375000 0.992977
vt 0.632023 0.500000
vt 0.867977 0.500000
vt 0.867977 0.750000
vt 0.632023 0.750000
vt 0.382023 0.500000
vt 0.617977 0.500000
vt 0.382023 0.750000
vt 0.130924 0.750000
vt 0.130924 0.500000
vt 0.129853 0.750000
vt 0.129853 0.500000
vt 0.128834 0.750000
vt 0.128834 0.500000
vt 0.127895 0.750000
vt 0.127895 0.500000
vt 0.125000 0.750000
vt 0.125000 0.500000
vt 0.375000 0.250000
vt 0.375000 0.000000
vt 0.377895 0.000000
vt 0.377895 0.250000
vt 0.378834 0.000000
vt 0.378834 0.250000
vt 0.379853 0.000000
vt 0.379853 0.250000
vt 0.380924 0.000000
vt 0.380924 0.250000
vt 0.630924 0.750000
vt 0.630924 0.500000
vt 0.629853 0.750000
vt 0.629853 0.500000
vt 0.628834 0.750000
vt 0.628834 0.500000
vt 0.627895 0.750000
vt 0.627895 0.500000
vt 0.625000 0.750000
vt 0.625000 0.500000
vt 0.622105 0.750000
vt 0.622105 0.500000
vt 0.621166 0.750000
vt 0.621166 0.500000
vt 0.620147 0.750000
vt 0.620147 0.500000
vt 0.619076 0.750000
vt 0.619076 0.500000
vt 0.869076 0.500000
vt 0.869076 0.750000
vt 0.870147 0.500000
vt 0.870147 0.750000
vt 0.871166 0.500000
vt 0.871166 0.750000
vt 0.872105 0.500000
vt 0.872105 0.750000
vt 0.875000 0.500000
vt 0.875000 0.750000
vt 0.625000 0.000000
vt 0.625000 0.250000
vt 0.622105 0.250000
vt 0.622105 0.000000
vt 0.621166 0.250000
vt 0.621166 0.000000
vt 0.620147 0.250000
vt 0.620147 0.000000
vt 0.619076 0.250000
vt 0.619076 0.000000
vt 0.369076 0.500000
vt 0.369076 0.750000
vt 0.370147 0.500000
vt 0.370147 0.750000
vt 0.371166 0.500000
vt 0.371166 0.750000
vt 0.372105 0.500000
vt 0.372105 0.750000
vt 0.375000 0.500000
vt 0.375000 0.750000
vt 0.377895 0.500000
vt 0.377895 0.750000
vt 0.378834 0.500000
vt 0.378834 0.750000
vt 0.379853 0.500000
vt 0.379853 0.750000
vt 0.380924 0.500000
vt 0.380924 0.750000
vt 0.375000 0.257023
vt 0.375086 0.255924
vt 0.375344 0.254853
vt 0.375765 0.253834
vt 0.376341 0.252895
vt 0.377057 0.252057
vt 0.377895 0.251341
vt 0.378834 0.250765
vt 0.379853 0.250344
vt 0.380924 0.250086
vt 0.382023 0.250000
vt 0.619076 0.250086
vt 0.620147 0.250344
vt 0.621166 0.250765
vt 0.622105 0.251341
vt 0.622943 0.252057
vt 0.623659 0.252895
vt 0.624235 0.253834
vt 0.624656 0.254853
vt 0.624914 0.255924
vt 0.625000 0.257023
vt 0.625000 0.492977
vt 0.624914 0.494076
vt 0.624656 0.495147
vt 0.624235 0.496166
vt 0.623659 0.497105
vt 0.622943 0.497943
vt 0.622105 0.498659
vt 0.621166 0.499235
vt 0.620147 0.499656
vt 0.619076 0.499914
vt 0.382023 0.500000
vt 0.380924 0.499914
vt 0.379853 0.499656
vt 0.378834 0.499235
vt 0.377895 0.498659
vt 0.377057 0.497943
vt 0.376341 0.497105
vt 0.375765 0.496166
vt 0.375344 0.495147
vt 0.375086 0.494076
vt 0.375000 0.492977
s 0
usemtl Material
f 56/1/1 13/2/1 34/3/1 79/4/1
f 78/5/2 68/6/2 45/7/2 57/8/2
f 34/9/3 36/10/3 37/11/3 38/12/3 39/13/3 40/14/3 41/15/3 42/16/3 43/17/3 44/18/3 35/19/3 23/20/3 25/21/3 26/22/3 27/23/3 28/24/3 29/25/3 30/26/3 31/27/3 32/28/3 33/29/3 24/30/3 67/31/3 69/32/3 70/33/3 71/34/3 72/35/3 73/36/3 74/37/3 75/38/3 76/39/3 77/40/3 68/41/3 78/42/3 80/43/3 81/44/3 82/45/3 83/46/3 84/47/3 85/48/3 86/49/3 87/50/3 88/51/3 79/52/3
f 1/53/4 46/54/4 67/55/4 24/56/4
f 12/57/5 2/58/5 23/20/5 35/59/5
f 56/1/6 79/4/6 88/60/6 58/61/6
f 58/61/7 88/60/7 87/62/7 59/63/7
f 59/63/8 87/62/8 86/64/8 60/65/8
f 60/65/9 86/64/9 85/66/9 61/67/9
f 61/67/10 85/66/10 84/68/10 62/69/10
f 62/70/11 84/71/11 83/72/11 63/73/11
f 63/73/12 83/72/12 82/74/12 64/75/12
f 64/75/13 82/74/13 81/76/13 65/77/13
f 65/77/14 81/76/14 80/78/14 66/79/14
f 66/79/15 80/78/15 78/5/15 57/8/15
f 1/53/16 24/56/16 33/80/16 3/81/16
f 3/81/17 33/80/17 32/82/17 4/83/17
f 4/83/18 32/82/18 31/84/18 5/85/18
f 5/85/19 31/84/19 30/86/19 6/87/19
f 6/87/20 30/86/20 29/88/20 7/89/20
f 7/89/21 29/88/21 28/90/21 8/91/21
f 8/91/22 28/90/22 27/92/22 9/93/22
f 9/93/23 27/92/23 26/94/23 10/95/23
f 10/95/24 26/94/24 25/96/24 11/97/24
f 11/97/25 25/96/25 23/20/25 2/58/25
f 67/55/26 46/54/26 55/98/26 69/99/26
f 69/99/27 55/98/27 54/100/27 70/101/27
f 70/101/28 54/100/28 53/102/28 71/103/28
f 71/103/29 53/102/29 52/104/29 72/105/29
f 72/105/30 52/104/30 51/106/30 73/107/30
f 73/108/31 51/109/31 50/110/31 74/111/31
f 74/111/32 50/110/32 49/112/32 75/113/32
f 75/113/33 49/112/33 48/114/33 76/115/33
f 76/115/34 48/114/34 47/116/34 77/117/34
f 77/117/35 47/116/35 45/7/35 68/6/35
f 34/3/36 13/2/36 22/118/36 36/119/36
f 36/119/37 22/118/37 21/120/37 37/121/37
f 37/121/38 21/120/38 20/122/38 38/123/38
f 38/123/39 20/122/39 19/124/39 39/125/39
f 39/125/40 19/124/40 18/126/40 40/127/40
f 40/127/41 18/126/41 17/128/41 41/129/41
f 41/129/42 17/128/42 16/130/42 42/131/42
f 42/131/43 16/130/43 15/132/43 43/133/43
f 43/133/44 15/132/44 14/134/44 44/135/44
f 44/135/45 14/134/45 12/57/45 35/59/45
f 56/136/46 58/137/46 59/138/46 60/139/46 61/140/46 62/141/46 63/142/46 64/143/46 65/144/46 66/145/46 57/146/46 45/7/46 47/147/46 48/148/46 49/149/46 50/150/46 51/151/46 52/152/46 53/153/46 54/154/46 55/155/46 46/156/46 1/157/46 3/158/46 4/159/46 5/160/46 6/161/46 7/162/46 8/163/46 9/164/46 10/165/46 11/166/46 2/58/46 12/167/46 14/168/46 15/169/46 16/170/46 17/171/46 18/172/46 19/173/46 20/174/46 21/175/46 22/176/46 13/177/46
